<svg width="32" height="32" viewBox="0 0 32 32" fill="none" xmlns="http://www.w3.org/2000/svg">
<path d="M8 10.6665C6 10.6665 6 13.3332 8 13.3332L10.6674 13.3332C11.4037 13.3332 12 13.9258 12 14.6622V27.3332C12 29.3332 14.6667 29.3332 14.6667 27.3332C14.6667 25.3332 14.6667 21.3332 16 21.3332C17.3333 21.3332 17.3333 25.3332 17.3333 27.3332C17.3333 29.3332 20 29.3332 20 27.3332V14.6665C20 13.9301 20.597 13.3332 21.3333 13.3332H24C26 13.3332 26 10.6665 24 10.6665H8Z" stroke="#074CFF" stroke-linecap="round"/>
<path d="M18.6666 6.00016C18.6666 7.47292 17.4727 8.66683 15.9999 8.66683C14.5272 8.66683 13.3333 7.47292 13.3333 6.00016C13.3333 4.5274 14.5272 3.3335 15.9999 3.3335C17.4727 3.3335 18.6666 4.5274 18.6666 6.00016Z" stroke="#074CFF"/>
</svg>
